<?xml version="1.0" standalone="no"?>
<!DOCTYPE svg PUBLIC "-//W3C//DTD SVG 20010904//EN"
 "http://www.w3.org/TR/2001/REC-SVG-20010904/DTD/svg10.dtd">
<svg version="1.0" xmlns="http://www.w3.org/2000/svg"
 width="1131.000000pt" height="601.000000pt" viewBox="0 0 1131.000000 601.000000"
 preserveAspectRatio="xMidYMid meet">

<g transform="translate(0.000000,601.000000) scale(0.100000,-0.100000)"
fill="#000000" stroke="none">
<path d="M8166 5425 c-40 -33 -58 -56 -65 -83 -24 -93 -42 -167 -71 -297 -17
-77 -53 -234 -80 -350 -27 -115 -61 -264 -76 -330 -15 -66 -35 -156 -46 -200
-10 -44 -25 -116 -34 -160 -9 -44 -24 -98 -34 -120 -10 -23 -19 -54 -18 -71 0
-28 -17 -109 -97 -454 -20 -85 -49 -213 -65 -285 -16 -71 -42 -186 -59 -255
-16 -69 -27 -137 -24 -152 9 -47 62 -84 147 -102 42 -10 76 -23 77 -29 1 -21
17 35 48 173 17 74 53 232 80 350 27 118 77 337 111 485 34 149 81 356 105
460 85 372 154 671 175 765 11 52 34 151 50 220 57 247 100 438 100 447 0 11
-88 33 -135 33 -25 0 -48 -12 -89 -45z m149 24 c22 -5 45 -12 51 -14 9 -3 8
-19 -2 -62 -8 -32 -46 -197 -84 -368 -39 -170 -93 -409 -121 -530 -90 -388
-147 -636 -184 -800 -82 -359 -117 -516 -144 -630 -15 -66 -43 -189 -62 -273
l-34 -153 -45 6 c-63 9 -91 25 -113 63 l-19 33 67 297 c36 163 78 344 91 402
14 58 45 193 69 300 24 107 78 344 120 525 42 182 96 420 121 530 68 296 110
481 129 562 13 57 23 78 47 98 32 27 53 30 113 14z m-189 -141 c-8 -34 -40
-173 -71 -308 -59 -260 -96 -422 -251 -1095 -53 -231 -120 -526 -149 -655 -29
-129 -68 -298 -86 -376 -19 -84 -29 -151 -25 -167 12 -48 52 -84 109 -97 28
-7 59 -16 67 -21 29 -15 -17 -22 -72 -9 -81 18 -103 28 -121 59 -23 39 -22 49
17 218 19 82 60 258 90 393 31 135 81 351 111 480 29 129 68 298 85 375 17 77
40 176 50 220 42 179 132 573 180 785 28 124 55 236 61 249 18 43 21 14 5 -51z"/>
<path d="M8461 5391 c-6 -20 -12 -47 -15 -61 -3 -14 -32 -142 -65 -285 -33
-143 -85 -370 -116 -505 -30 -135 -78 -342 -105 -460 -27 -118 -81 -354 -120
-525 -39 -170 -86 -377 -105 -460 -19 -82 -55 -240 -80 -350 -25 -110 -47
-205 -49 -211 -3 -6 8 -11 23 -12 16 0 52 -7 82 -16 30 -8 99 -24 154 -36 168
-34 159 -29 170 -91 6 -30 13 -58 16 -64 4 -5 9 -38 13 -72 8 -71 14 -65 -97
-97 -31 -10 -69 -28 -84 -40 l-27 -24 3 -758 c2 -417 7 -767 11 -778 12 -30
50 -62 90 -74 121 -38 411 -72 616 -72 243 0 596 46 667 87 70 41 67 4 67 841
l0 753 -52 24 c-29 14 -58 25 -65 25 -6 0 -15 5 -19 11 -14 23 13 28 76 13 65
-15 110 -12 133 9 6 7 29 25 49 40 28 21 41 40 49 72 10 39 15 45 38 46 25 1
25 1 -4 9 -16 4 -66 15 -110 24 -101 21 -134 57 -82 90 20 13 33 12 121 -10
54 -14 101 -22 104 -19 3 3 -2 5 -11 5 -22 0 -22 -6 10 133 20 88 30 117 42
118 9 0 -28 11 -82 24 -103 24 -127 37 -127 65 0 40 25 44 124 24 l93 -20 13
65 c7 36 21 95 30 132 l16 67 -55 12 c-110 23 -130 30 -136 49 -7 23 2 48 21
55 8 3 62 -6 121 -20 58 -13 108 -22 111 -19 3 3 -2 5 -12 5 -27 0 -28 21 -6
121 28 128 28 127 53 131 12 2 -26 14 -85 27 -60 13 -113 30 -119 37 -6 8 -8
25 -5 39 8 32 33 32 151 4 48 -11 90 -18 93 -15 3 3 -2 6 -11 6 -21 0 -21 1 7
134 18 85 27 111 42 117 17 7 17 8 -4 8 -12 1 -61 11 -107 22 -74 19 -86 25
-91 46 -4 16 -1 30 9 41 15 14 23 14 99 -2 46 -9 91 -19 100 -22 12 -4 15 0
12 13 -4 15 21 136 47 232 3 11 -18 20 -81 35 -101 25 -110 30 -110 61 0 43
28 47 140 19 57 -13 105 -22 108 -19 3 3 -2 5 -11 5 -22 0 -21 16 3 127 24
112 28 121 48 125 10 2 -30 14 -88 26 -57 13 -108 28 -112 35 -12 19 -9 44 8
58 15 12 51 8 204 -27 18 -4 21 -3 11 4 -15 11 -13 30 16 162 9 41 22 80 29
86 10 8 -7 15 -73 28 -104 20 -123 30 -123 60 0 44 21 50 107 31 43 -9 86 -19
96 -21 10 -3 16 -2 15 3 -1 4 1 25 5 46 9 44 -13 100 -48 123 -12 8 -110 34
-216 59 -107 24 -243 55 -304 70 -60 14 -162 37 -225 51 -63 13 -180 40 -260
59 -138 33 -486 112 -672 153 l-88 20 -9 -37z m293 -41 c143 -33 360 -83 481
-110 121 -28 326 -75 455 -105 129 -30 300 -69 380 -87 169 -38 200 -57 200
-125 0 -59 -8 -66 -66 -53 -27 6 -55 17 -64 24 -53 45 -130 8 -130 -63 0 -36
37 -61 93 -61 58 0 127 -16 127 -30 0 -12 -28 -147 -40 -192 l-10 -36 -53 12
c-28 7 -64 20 -79 30 -49 32 -118 -2 -118 -60 0 -12 10 -34 21 -48 18 -23 28
-27 63 -25 49 4 124 -9 132 -22 5 -9 -12 -97 -37 -192 -10 -38 -11 -39 -47
-32 -20 3 -55 15 -78 26 -54 25 -80 24 -109 -6 -32 -31 -32 -69 1 -101 20 -21
32 -25 62 -21 51 6 132 -13 132 -31 0 -13 -36 -180 -45 -208 -4 -15 -99 1
-131 22 -53 35 -135 -11 -121 -68 13 -52 31 -63 104 -64 85 -1 113 -10 113
-35 0 -16 -32 -160 -45 -206 -4 -13 -83 4 -141 32 -29 14 -38 14 -61 3 -15 -7
-34 -25 -43 -40 -13 -25 -13 -31 0 -55 20 -35 61 -56 90 -45 33 12 120 -8 120
-28 0 -28 -41 -205 -49 -213 -9 -9 -90 10 -148 34 -40 16 -76 0 -93 -42 -23
-55 21 -106 84 -96 38 6 132 -15 130 -29 -8 -48 -48 -211 -54 -217 -9 -10 -82
8 -122 29 -14 8 -34 14 -45 14 -16 0 -18 8 -14 92 3 90 -15 264 -29 273 -4 2
-14 -13 -23 -33 -9 -20 -53 -85 -96 -145 -78 -106 -101 -158 -101 -233 0 -14
-6 -35 -14 -47 -19 -30 -108 -337 -102 -352 8 -21 -20 -100 -35 -100 -17 0
-18 -18 17 362 l26 291 -31 129 c-45 192 -43 188 -75 117 -65 -138 -95 -215
-101 -256 -5 -41 -55 -569 -55 -589 0 -5 -6 -9 -12 -9 -36 1 -40 15 -47 216
l-8 199 -54 150 c-30 82 -58 149 -64 148 -5 -1 -32 -70 -58 -155 l-48 -153 6
-125 c7 -138 -1 -155 -15 -34 -7 60 -26 123 -80 259 -95 243 -90 232 -100 215
-4 -8 -13 -53 -20 -100 -7 -47 -16 -91 -20 -99 -4 -7 -13 60 -20 150 -14 191
-20 216 -61 255 -26 25 -38 29 -84 29 -48 0 -59 -4 -86 -32 -23 -22 -36 -48
-45 -90 -7 -32 -20 -92 -29 -133 -22 -99 -16 -279 15 -408 12 -51 19 -96 16
-99 -5 -5 -162 26 -297 58 l-37 9 25 103 c13 56 35 152 48 212 23 108 77 345
155 680 69 296 142 618 157 685 7 36 33 151 57 255 25 105 61 262 81 350 20
88 45 196 55 240 10 44 29 125 41 180 22 102 26 115 36 115 3 0 123 -27 267
-60z m-388 -2114 c53 -53 49 -57 -77 -72 -96 -10 -119 8 -78 60 44 56 106 61
155 12z m44 -85 c0 -24 -22 -30 -132 -38 -85 -6 -88 -5 -88 16 0 19 6 21 63
22 34 1 76 5 92 9 51 13 65 11 65 -9z m4 -78 c16 -122 26 -327 20 -413 -3 -52
-1 -133 5 -180 7 -51 7 -88 2 -93 -15 -15 -191 -22 -191 -8 0 16 -48 589 -55
664 l-6 57 73 1 c40 1 87 5 103 9 17 4 33 8 37 9 3 0 9 -20 12 -46z m1162
-138 c-5 -97 -18 -160 -39 -180 -7 -7 -7 -3 -2 10 24 61 37 157 32 250 -3 77
-2 91 5 60 5 -22 7 -85 4 -140z m-1416 65 c-16 -110 -8 -251 20 -368 11 -46
20 -92 20 -103 0 -25 -36 -60 -55 -53 -22 9 -18 24 5 24 33 0 34 24 9 138 -27
126 -32 324 -10 410 20 79 26 55 11 -48z m1051 16 c11 -43 16 -92 14 -128 -4
-47 -41 -464 -71 -791 -7 -76 -2 -73 -116 -81 -37 -3 -70 -2 -72 2 -2 4 0 45
5 92 4 47 22 238 39 425 17 187 33 355 36 373 5 34 20 34 32 2 6 -17 9 -17 27
-3 12 10 14 14 4 10 -8 -3 -25 5 -37 18 l-23 23 31 69 31 69 41 -5 42 -6 17
-69z m-361 -145 l51 -134 -28 -23 c-22 -17 -32 -20 -47 -12 -13 7 -26 7 -43
-1 -19 -9 -29 -8 -48 6 -14 10 -25 22 -25 27 0 12 83 277 86 273 1 -1 25 -62
54 -136z m-271 -31 c34 -85 65 -164 70 -175 6 -15 2 -28 -19 -53 -23 -28 -31
-31 -51 -23 -17 6 -33 4 -53 -6 -27 -14 -30 -14 -56 14 l-28 28 30 175 c30
178 36 206 42 199 2 -2 31 -74 65 -159z m-384 -48 c18 -205 18 -234 -1 -167
-22 81 -37 247 -29 312 10 72 11 68 30 -145z m1263 -82 c39 -11 72 -23 72 -27
0 -20 -99 -343 -106 -343 -15 0 -161 44 -168 50 -5 5 5 52 22 107 17 54 40
131 52 171 18 57 26 72 39 68 9 -3 49 -14 89 -26z m-678 -25 c17 9 32 10 48 4
19 -7 29 -5 43 7 11 10 21 15 23 13 6 -6 24 -683 19 -691 -8 -14 -163 -9 -163
5 -3 69 -8 115 -15 131 -5 12 -5 17 1 13 6 -3 9 13 8 41 -1 26 -3 119 -4 207
-2 96 -5 148 -10 130 -4 -17 -6 7 -3 55 3 57 1 80 -5 71 -8 -11 -10 -8 -9 12
2 25 2 25 22 7 17 -16 23 -17 45 -5z m877 -1 c47 -1 88 -5 93 -10 7 -7 -26
-180 -44 -230 -3 -8 -22 -7 -65 5 -33 9 -63 20 -67 24 -4 4 -22 7 -41 7 -40 0
-40 1 -8 110 14 46 22 93 19 104 -6 19 -5 20 11 6 13 -10 44 -15 102 -16z
m-972 -305 c13 -129 27 -265 31 -303 l7 -68 -106 4 c-58 2 -108 6 -110 8 -3 3
-18 132 -34 288 -29 286 -28 316 10 260 14 -23 15 -23 35 -4 21 18 44 18 85 1
11 -5 17 -3 17 6 0 14 31 52 37 45 2 -2 15 -109 28 -237z m-690 152 c93 -21
121 -32 123 -45 3 -13 -1 -16 -15 -12 -10 3 -76 19 -148 37 -71 17 -132 32
-134 34 -10 10 13 24 32 20 12 -3 76 -18 142 -34z m225 -67 c0 -11 -5 -14 -16
-10 -9 3 -18 6 -20 6 -3 0 -2 5 1 10 10 16 35 12 35 -6z m507 -76 c-3 -7 -5
-2 -5 12 0 14 2 19 5 13 2 -7 2 -19 0 -25z m-277 -33 c0 -16 -43 -26 -111 -27
-77 -1 -89 2 -89 17 0 11 18 15 83 18 45 1 90 4 100 5 9 1 17 -5 17 -13z m888
-11 c32 -9 60 -19 64 -23 4 -4 -12 -65 -36 -136 l-44 -130 -68 -12 c-37 -7
-70 -10 -73 -7 -5 4 65 296 76 317 6 10 18 9 81 -9z m158 -1 c21 -13 32 -15
55 -6 27 11 102 1 121 -16 14 -12 -12 -80 -39 -101 -14 -11 -41 -20 -60 -20
-41 0 -163 30 -163 40 0 25 45 120 57 120 2 0 15 -8 29 -17z m-1035 -50 c0
-16 6 -81 12 -146 7 -65 9 -121 5 -123 -8 -5 -165 13 -177 21 -5 2 -11 37 -15
77 -4 40 -9 97 -12 126 l-6 52 43 1 c24 0 62 4 84 8 63 13 65 13 66 -16z m509
1 c0 -8 -9 -14 -20 -14 -13 0 -20 7 -20 19 0 14 5 18 20 14 11 -3 20 -12 20
-19z m0 -64 c0 -23 -4 -30 -20 -30 -16 0 -20 7 -20 30 0 23 4 30 20 30 16 0
20 -7 20 -30z m230 15 c0 -8 -4 -15 -10 -15 -5 0 -10 7 -10 15 0 8 5 15 10 15
6 0 10 -7 10 -15z m-10 -50 c0 -8 -4 -15 -10 -15 -5 0 -10 7 -10 15 0 8 5 15
10 15 6 0 10 -7 10 -15z m303 -6 c70 -15 83 -29 27 -29 -47 0 -130 19 -130 30
0 13 13 20 29 16 9 -3 42 -10 74 -17z m-533 -46 c0 -16 -3 -53 -7 -83 l-7 -55
-7 45 c-13 79 -11 120 6 120 10 0 15 -10 15 -27z m-696 -9 c3 -9 6 -31 6 -50
0 -29 -4 -34 -22 -34 -29 0 -137 26 -145 34 -12 12 13 26 78 46 80 23 76 23
83 4z m1155 -35 c43 -15 39 -27 -14 -35 -53 -7 -56 -6 -48 24 6 25 16 27 62
11z m-1164 -78 c368 -64 797 -55 1193 25 l32 7 0 -756 c0 -829 4 -769 -58
-801 -59 -30 -451 -76 -642 -76 -199 0 -545 42 -630 76 -74 30 -70 -14 -70
814 l0 742 28 -5 c15 -2 81 -14 147 -26z"/>
<path d="M9150 2911 c31 -26 32 -26 49 2 13 21 12 21 -4 5 -16 -15 -20 -15
-44 -1 l-26 15 25 -21z"/>
<path d="M6370 5257 c0 -2 5 -18 11 -36 11 -32 23 -39 34 -21 8 13 202 11 226
-1 13 -6 18 -3 23 14 11 42 8 52 -12 34 -28 -26 -218 -29 -255 -4 -15 10 -27
16 -27 14z"/>
<path d="M1824 5196 c-3 -8 -4 -29 -2 -48 l3 -33 205 -5 c198 -5 207 -6 260
-32 30 -15 56 -25 58 -23 11 11 -24 69 -60 99 -54 47 -102 56 -293 56 -133 0
-167 -3 -171 -14z"/>
<path d="M7215 4967 c-47 -22 -59 -41 -39 -62 12 -12 24 -14 43 -8 14 4 55 8
91 7 66 -1 132 -25 159 -58 7 -9 32 -21 54 -27 23 -6 61 -20 84 -31 24 -11 50
-18 58 -14 14 5 57 67 51 73 -2 2 -19 -4 -39 -12 -47 -19 -120 -19 -161 0 -19
9 -40 30 -49 50 -35 73 -173 118 -252 82z"/>
<path d="M3228 4955 c-51 -19 -97 -52 -142 -102 l-37 -42 30 9 c17 4 61 23 98
42 60 29 77 33 155 34 49 0 91 4 95 8 12 11 -37 44 -84 55 -52 14 -69 13 -115
-4z"/>
<path d="M5613 4947 c-45 -19 -123 -77 -123 -92 0 -13 52 -3 84 16 20 12 62
23 96 26 50 5 67 2 113 -21 30 -14 65 -26 78 -26 22 1 19 5 -27 48 -48 45
-106 72 -150 72 -11 0 -42 -11 -71 -23z"/>
<path d="M4417 4935 c-36 -12 -74 -40 -104 -75 -14 -16 -53 -94 -53 -105 0 -4
20 11 44 32 53 46 101 63 182 63 70 0 126 -23 172 -70 37 -39 39 -37 13 22
-26 58 -63 95 -125 124 -58 27 -76 28 -129 9z"/>
<path d="M2849 4813 c37 -69 34 -68 82 -46 24 12 53 24 64 29 14 5 1 9 -47 14
-41 4 -75 13 -86 23 -30 27 -34 20 -13 -20z"/>
<path d="M10308 4833 c7 -3 16 -2 19 1 4 3 -2 6 -13 5 -11 0 -14 -3 -6 -6z"/>
<path d="M10348 4823 c7 -3 16 -2 19 1 4 3 -2 6 -13 5 -11 0 -14 -3 -6 -6z"/>
<path d="M10420 4806 c0 -2 8 -10 18 -17 15 -13 16 -12 3 4 -13 16 -21 21 -21
13z"/>
<path d="M2564 4737 c-28 -35 -91 -73 -164 -99 -59 -21 -87 -23 -320 -28
l-255 -5 -1 -37 c-1 -20 2 -42 6 -48 5 -9 66 -11 226 -8 193 4 227 7 288 27
83 27 107 41 164 95 41 39 89 113 79 122 -3 3 -13 -6 -23 -19z"/>
<path d="M6885 4710 c4 -14 21 -44 39 -67 27 -37 36 -42 69 -43 43 0 73 -13
97 -42 11 -13 60 -28 175 -53 88 -19 170 -37 181 -40 36 -11 37 21 0 52 -27
25 -58 34 -210 67 -210 44 -268 65 -320 114 -35 34 -38 35 -31 12z"/>
<path d="M3415 4609 c-16 -5 -81 -20 -144 -34 -80 -17 -123 -32 -147 -50 -47
-36 -47 -90 0 -59 13 8 85 30 162 50 164 42 174 47 174 79 0 27 -1 27 -45 14z"/>
<path d="M6155 4584 c-17 -13 -18 -16 -5 -24 21 -13 27 -12 34 6 14 36 4 43
-29 18z"/>
<path d="M5480 4554 c0 -3 9 -19 21 -35 l20 -29 173 0 c167 0 173 1 194 23 43
45 36 47 -193 47 -118 0 -215 -3 -215 -6z"/>
<path d="M10318 4463 c7 -3 16 -2 19 1 4 3 -2 6 -13 5 -11 0 -14 -3 -6 -6z"/>
<path d="M4883 4291 c-66 -74 -167 -126 -273 -142 -88 -13 -230 -6 -292 16
-58 20 -58 20 -58 -19 0 -30 5 -36 43 -54 67 -31 116 -42 197 -42 137 0 243
41 329 128 50 49 120 157 109 167 -2 2 -26 -22 -55 -54z"/>
<path d="M5230 4333 c0 -17 60 -101 104 -145 92 -94 209 -138 366 -138 203 0
369 81 436 212 32 64 30 80 -4 32 -42 -57 -125 -110 -212 -134 -88 -24 -322
-30 -405 -9 -82 20 -165 67 -227 129 -32 32 -58 56 -58 53z"/>
<path d="M6860 4310 c0 -24 61 -119 96 -149 84 -75 202 -111 356 -111 210 0
340 59 404 182 21 41 14 43 -25 7 -42 -38 -96 -65 -168 -84 -72 -19 -336 -22
-408 -4 -82 20 -159 64 -209 119 -25 29 -46 47 -46 40z"/>
<path d="M2830 4252 c0 -24 48 -88 103 -135 64 -54 91 -61 272 -61 120 -1 197
17 262 61 42 29 70 29 78 2 9 -26 62 -59 98 -59 38 0 79 23 111 60 36 44 33
51 -15 35 -79 -28 -170 -17 -216 27 -16 15 -26 18 -35 10 -7 -5 -42 -20 -77
-32 -54 -18 -87 -21 -212 -21 -81 0 -167 5 -191 11 -65 18 -133 56 -157 87
-11 15 -21 22 -21 15z"/>
<path d="M1530 4153 c0 -35 50 -79 100 -87 77 -12 147 23 165 83 7 22 5 23
-16 16 -48 -16 -187 -17 -219 -2 -29 15 -30 15 -30 -10z"/>
<path d="M6400 4158 c0 -37 36 -76 82 -88 85 -23 168 17 168 81 0 27 -2 30
-16 18 -20 -17 -199 -16 -219 1 -13 10 -15 8 -15 -12z"/>
<path d="M3980 3903 c0 -15 7 -36 14 -45 16 -22 77 -48 111 -48 34 0 95 26
111 48 7 9 14 29 14 43 l0 27 -42 -15 c-47 -16 -152 -12 -188 7 -18 10 -20 8
-20 -17z"/>
<path d="M1500 3815 c-19 -10 -33 -36 -57 -102 -76 -207 -257 -698 -302 -818
-27 -71 -72 -193 -101 -270 -28 -77 -73 -198 -100 -270 -27 -71 -74 -200 -105
-285 -31 -85 -79 -213 -105 -285 -147 -393 -144 -384 -134 -412 18 -52 33 -51
171 12 177 81 276 127 433 200 144 68 230 107 405 187 61 28 170 79 243 114
74 35 136 64 138 64 2 0 52 23 110 50 58 28 108 50 109 50 2 0 64 29 140 65
75 36 138 65 140 65 1 0 49 22 106 49 134 63 230 107 299 138 92 41 94 70 13
149 -96 93 -251 243 -369 357 l-112 107 -120 0 c-65 0 -140 3 -165 6 -53 8
-51 2 -67 194 -6 69 -13 132 -15 141 -6 19 -482 482 -512 497 -13 7 -26 6 -43
-3z m259 -264 c122 -117 221 -217 221 -223 0 -8 -213 -314 -330 -473 -20 -27
-103 -144 -185 -260 -82 -115 -174 -246 -206 -290 -88 -125 -253 -358 -269
-381 -144 -209 -281 -393 -291 -394 -10 0 41 143 240 675 27 72 74 200 106
285 31 85 78 214 105 285 27 72 71 191 99 265 27 74 93 251 145 393 53 141 96
259 96 261 0 15 33 77 40 74 4 -2 108 -99 229 -217z m255 -263 c6 -26 20 -291
18 -326 -1 -14 -43 -68 -109 -140 -58 -64 -125 -137 -148 -162 -130 -143 -167
-184 -235 -259 -41 -47 -80 -89 -85 -95 -6 -6 -91 -101 -190 -211 -99 -110
-187 -207 -195 -215 -8 -9 -51 -56 -95 -106 -44 -49 -117 -127 -163 -174 l-83
-85 63 95 c35 52 81 120 103 150 37 52 103 146 190 270 21 30 93 132 160 225
66 94 154 217 195 275 41 58 97 137 125 175 49 66 113 158 161 229 12 17 60
85 107 151 47 66 103 144 123 173 41 58 51 63 58 30z m412 -369 c8 -6 14 -14
14 -18 0 -4 -35 -36 -77 -71 -43 -36 -80 -67 -83 -70 -3 -3 -32 -28 -65 -55
-33 -27 -78 -65 -101 -85 -103 -89 -162 -139 -218 -184 -34 -27 -63 -51 -66
-55 -3 -3 -59 -51 -125 -106 -274 -229 -504 -423 -571 -479 -39 -34 -105 -90
-148 -126 -43 -36 -83 -69 -90 -75 -37 -33 -127 -105 -161 -130 -36 -26 -38
-26 -20 -5 19 23 27 33 50 62 11 13 106 119 179 198 23 25 125 137 226 250
102 113 187 207 190 210 3 3 50 55 105 115 54 61 116 128 136 150 20 22 103
114 184 205 81 91 173 191 203 222 l55 56 184 2 c127 0 189 -3 199 -11z m88
-96 c160 -151 382 -367 389 -379 8 -14 -18 -28 -258 -137 -94 -42 -138 -63
-360 -167 -49 -23 -115 -53 -145 -67 -30 -14 -111 -51 -180 -83 -69 -32 -186
-86 -260 -120 -74 -34 -166 -77 -205 -95 -183 -86 -268 -125 -271 -125 -1 0
-45 -20 -96 -44 -307 -146 -368 -172 -368 -158 0 8 49 52 176 159 142 119 247
208 258 218 6 6 65 55 131 111 235 197 321 269 390 327 39 33 93 79 120 102
28 23 82 69 121 101 58 48 360 304 463 391 14 12 28 22 30 23 2 0 32 -26 65
-57z"/>
<path d="M10078 3793 c7 -3 16 -2 19 1 4 3 -2 6 -13 5 -11 0 -14 -3 -6 -6z"/>
<path d="M10118 3783 c7 -3 16 -2 19 1 4 3 -2 6 -13 5 -11 0 -14 -3 -6 -6z"/>
<path d="M10158 3683 c7 -3 16 -2 19 1 4 3 -2 6 -13 5 -11 0 -14 -3 -6 -6z"/>
<path d="M10008 3443 c7 -3 16 -2 19 1 4 3 -2 6 -13 5 -11 0 -14 -3 -6 -6z"/>
<path d="M10078 3333 c7 -3 16 -2 19 1 4 3 -2 6 -13 5 -11 0 -14 -3 -6 -6z"/>
<path d="M6020 3309 c-26 -10 -90 -67 -90 -80 0 -12 41 3 47 17 12 32 111 51
172 33 7 -2 16 2 18 8 10 28 -94 43 -147 22z"/>
<path d="M5149 3286 c-35 -24 -75 -73 -66 -82 3 -3 22 6 42 21 53 35 146 36
199 0 49 -33 45 -12 -8 41 -38 39 -49 44 -87 44 -30 0 -56 -8 -80 -24z"/>
<path d="M5770 3212 c0 -5 7 -15 15 -22 12 -10 21 -9 48 4 l32 16 -32 0 c-17
0 -38 3 -47 6 -9 3 -16 2 -16 -4z"/>
<path d="M6125 3059 c-88 -19 -156 -43 -171 -61 -19 -20 -12 -37 8 -21 7 5 64
23 126 38 72 18 112 33 112 42 0 15 -16 15 -75 2z"/>
<path d="M9968 2993 c7 -3 16 -2 19 1 4 3 -2 6 -13 5 -11 0 -14 -3 -6 -6z"/>
<path d="M4920 2837 c0 -6 26 -36 58 -67 71 -69 125 -90 232 -90 66 0 86 4
136 29 56 29 58 29 71 11 18 -25 70 -39 108 -28 28 7 55 32 55 50 0 4 -37 8
-83 8 -46 0 -88 5 -94 11 -8 8 -24 6 -57 -5 -31 -11 -80 -16 -144 -15 -112 0
-188 23 -246 76 -20 17 -36 26 -36 20z"/>
<path d="M5779 2772 c26 -49 108 -88 201 -95 36 -3 72 -8 81 -12 14 -5 50 9
155 62 29 15 31 15 61 -16 39 -38 71 -40 112 -5 39 33 40 46 0 32 -39 -13
-105 -5 -129 17 -17 16 -23 15 -84 -5 -57 -20 -81 -22 -185 -18 -104 3 -125 7
-170 31 -41 21 -49 23 -42 9z"/>
<path d="M9848 2753 c7 -3 16 -2 19 1 4 3 -2 6 -13 5 -11 0 -14 -3 -6 -6z"/>
<path d="M9888 2743 c7 -3 16 -2 19 1 4 3 -2 6 -13 5 -11 0 -14 -3 -6 -6z"/>
<path d="M9971 2694 c0 -11 3 -14 6 -6 3 7 2 16 -1 19 -3 4 -6 -2 -5 -13z"/>
<path d="M9828 2663 c7 -3 16 -2 19 1 4 3 -2 6 -13 5 -11 0 -14 -3 -6 -6z"/>
<path d="M9918 2643 c6 -2 18 -2 25 0 6 3 1 5 -13 5 -14 0 -19 -2 -12 -5z"/>
<path d="M9818 2393 c7 -3 16 -2 19 1 4 3 -2 6 -13 5 -11 0 -14 -3 -6 -6z"/>
<path d="M9758 2313 c7 -3 16 -2 19 1 4 3 -2 6 -13 5 -11 0 -14 -3 -6 -6z"/>
<path d="M9798 2303 c7 -3 16 -2 19 1 4 3 -2 6 -13 5 -11 0 -14 -3 -6 -6z"/>
<path d="M4228 2284 c-5 -4 -8 -18 -8 -31 0 -12 -13 -37 -29 -55 l-29 -33
-386 -3 -386 -3 0 -64 0 -65 350 0 c380 0 393 2 443 55 31 34 59 121 55 170
-2 20 -6 33 -10 29z"/>
<path d="M5165 1948 c-5 -28 -18 -53 -40 -75 -32 -32 -35 -33 -119 -33 -102 0
-156 -21 -209 -80 -35 -38 -77 -133 -77 -172 0 -17 5 -14 29 19 57 79 131 113
247 113 81 0 107 12 151 74 35 48 37 55 34 121 -1 38 -4 71 -5 73 -2 2 -7 -16
-11 -40z"/>
<path d="M5761 1838 c-39 -15 -75 -40 -124 -89 l-69 -69 -85 0 -85 0 -39 39
c-34 34 -39 36 -39 17 1 -27 32 -93 63 -129 l23 -28 50 25 c27 13 82 34 122
46 41 12 86 34 100 47 50 46 129 75 212 76 41 1 92 -2 113 -6 44 -9 60 12 32
43 -45 50 -181 64 -274 28z"/>
<path d="M7238 1836 c-115 -30 -189 -119 -212 -253 -7 -43 -1 -42 23 5 37 71
113 118 208 128 76 8 135 -9 182 -52 21 -18 41 -34 43 -34 8 0 -7 73 -21 100
-47 90 -131 130 -223 106z"/>
<path d="M4143 1618 c-22 -83 -17 -82 -408 -88 l-340 -5 -3 -62 -3 -63 313 0
c287 0 317 2 355 20 66 29 108 114 101 203 l-3 42 -12 -47z"/>
<path d="M6055 1448 c-16 -4 -86 -20 -155 -34 -69 -14 -147 -34 -174 -45 -83
-31 -124 -85 -97 -128 7 -11 13 -9 29 7 23 23 118 53 305 97 124 30 135 38
125 92 -2 17 -8 18 -33 11z"/>
<path d="M5301 1065 c0 -11 8 -39 17 -62 64 -158 197 -233 423 -241 156 -5
261 23 380 101 27 18 27 18 48 -17 12 -19 38 -45 57 -57 73 -45 174 -3 221 92
28 56 30 83 3 51 -11 -13 -41 -30 -66 -38 -92 -27 -176 -13 -221 39 l-28 32
-60 -31 c-33 -18 -87 -38 -120 -45 -80 -18 -303 -18 -385 0 -120 26 -213 86
-254 166 -12 23 -16 25 -15 10z"/>
<path d="M3050 905 c0 -79 59 -126 160 -126 95 -1 148 38 156 115 3 25 2 46
-1 46 -4 0 -18 -9 -32 -20 -22 -17 -41 -20 -121 -20 -78 0 -100 4 -128 21
l-34 21 0 -37z"/>
<path d="M4393 900 c11 -82 61 -120 159 -120 96 0 148 43 148 123 l0 38 -26
-20 c-23 -18 -41 -21 -124 -21 -82 0 -101 3 -123 20 -36 28 -40 25 -34 -20z"/>
<path d="M6700 898 c0 -78 53 -118 159 -118 89 0 137 37 141 110 3 52 2 53
-26 31 -23 -18 -41 -21 -121 -21 -80 0 -100 3 -124 21 l-29 20 0 -43z"/>
<path d="M7504 893 c7 -50 25 -77 69 -100 57 -29 174 -14 212 27 18 20 34 110
19 110 -5 0 -18 -7 -28 -15 -14 -11 -47 -15 -117 -15 -81 0 -100 3 -122 20
-36 29 -40 25 -33 -27z"/>
</g>
</svg>
